<svg width="28" height="28" viewBox="0 0 28 28" fill="none" xmlns="http://www.w3.org/2000/svg">
<g clip-path="url(#clip0_106_11)">
<path fill-rule="evenodd" clip-rule="evenodd" d="M20.4784 18.7903C20.7339 18.6624 21.0274 18.6328 21.3033 18.707C21.5792 18.7812 21.8183 18.954 21.9752 19.1928L22.0429 19.3118L24.3762 23.9784C24.4595 24.1448 24.5017 24.3288 24.4994 24.5148C24.4971 24.7009 24.4503 24.8837 24.363 25.048C24.2756 25.2123 24.1502 25.3534 23.9973 25.4593C23.8443 25.5653 23.6682 25.6332 23.4837 25.6573L23.3332 25.6666H4.66655C4.48044 25.6666 4.297 25.6222 4.13158 25.5369C3.96615 25.4516 3.82352 25.328 3.71562 25.1763C3.60771 25.0247 3.53764 24.8494 3.51128 24.6652C3.48491 24.4809 3.50301 24.2931 3.56405 24.1173L3.62239 23.9773L5.95572 19.3106C6.0865 19.0403 6.31648 18.8308 6.5978 18.7257C6.87912 18.6207 7.19012 18.6281 7.46607 18.7466C7.74203 18.865 7.96169 19.0853 8.07934 19.3616C8.19699 19.6379 8.20357 19.9489 8.09772 20.2299L8.04289 20.3548L6.55422 23.3333H21.4456L19.9569 20.3548C19.8187 20.0781 19.7961 19.7579 19.8938 19.4646C19.9916 19.1712 20.2019 18.9287 20.4784 18.7903ZM13.9999 2.33325C16.1658 2.33325 18.243 3.19367 19.7746 4.72521C21.3061 6.25676 22.1666 8.33398 22.1666 10.4999C22.1666 13.2789 20.6627 15.5364 19.1064 17.1383C18.2467 18.0114 17.3016 18.7962 16.2854 19.4809L15.8502 19.7679L15.4629 20.0118C15.4022 20.0479 15.3439 20.0818 15.2891 20.1168L14.9892 20.2894C14.3732 20.6394 13.6266 20.6394 13.0106 20.2894L12.7107 20.1156L12.3491 19.8951C12.2823 19.8531 12.2158 19.8107 12.1496 19.7679L11.7144 19.4809C10.6982 18.7962 9.7531 18.0114 8.89339 17.1383C7.33705 15.5364 5.83322 13.2789 5.83322 10.4999C5.83322 8.33398 6.69364 6.25676 8.22518 4.72521C9.75673 3.19367 11.834 2.33325 13.9999 2.33325ZM13.9999 4.66659C12.4528 4.66659 10.9691 5.28117 9.8751 6.37513C8.78114 7.46909 8.16655 8.95282 8.16655 10.4999C8.16655 12.4086 9.20489 14.1108 10.5664 15.5119C11.3848 16.3397 12.2899 17.077 13.2661 17.7111L13.6627 17.9643C13.7852 18.0401 13.8984 18.1078 13.9999 18.1673L14.3382 17.9643L14.7337 17.7111C15.7099 17.077 16.615 16.3397 17.4334 15.5119C18.7949 14.1119 19.8332 12.4086 19.8332 10.4999C19.8332 8.95282 19.2186 7.46909 18.1247 6.37513C17.0307 5.28117 15.547 4.66659 13.9999 4.66659ZM13.9999 6.99992C14.9281 6.99992 15.8184 7.36867 16.4748 8.02504C17.1311 8.68142 17.4999 9.57166 17.4999 10.4999C17.4999 11.4282 17.1311 12.3184 16.4748 12.9748C15.8184 13.6312 14.9281 13.9999 13.9999 13.9999C13.0716 13.9999 12.1814 13.6312 11.525 12.9748C10.8686 12.3184 10.4999 11.4282 10.4999 10.4999C10.4999 9.57166 10.8686 8.68142 11.525 8.02504C12.1814 7.36867 13.0716 6.99992 13.9999 6.99992ZM13.9999 9.33325C13.6905 9.33325 13.3937 9.45617 13.1749 9.67496C12.9561 9.89375 12.8332 10.1905 12.8332 10.4999C12.8332 10.8093 12.9561 11.1061 13.1749 11.3249C13.3937 11.5437 13.6905 11.6666 13.9999 11.6666C14.3093 11.6666 14.6061 11.5437 14.8248 11.3249C15.0436 11.1061 15.1666 10.8093 15.1666 10.4999C15.1666 10.1905 15.0436 9.89375 14.8248 9.67496C14.6061 9.45617 14.3093 9.33325 13.9999 9.33325Z" fill="white"/>
</g>
<defs>
<clipPath id="clip0_106_11">
<rect width="28" height="28" fill="white"/>
</clipPath>
</defs>
</svg>
