<svg width="23" height="21" viewBox="0 0 23 21" fill="none" xmlns="http://www.w3.org/2000/svg">
<path d="M4.66667 17.5C3.38333 17.5 2.28472 17.0431 1.37083 16.1292C0.456945 15.2153 0 14.1167 0 12.8333C0 11.55 0.456945 10.4514 1.37083 9.5375C2.28472 8.62361 3.38333 8.16667 4.66667 8.16667C5.95 8.16667 7.04861 8.62361 7.9625 9.5375C8.87639 10.4514 9.33333 11.55 9.33333 12.8333C9.33333 14.1167 8.87639 15.2153 7.9625 16.1292C7.04861 17.0431 5.95 17.5 4.66667 17.5ZM4.66667 15.1667C5.30833 15.1667 5.85783 14.938 6.31517 14.4807C6.7725 14.0233 7.00078 13.4742 7 12.8333C7 12.1917 6.77133 11.6422 6.314 11.1848C5.85667 10.7275 5.30756 10.4992 4.66667 10.5C4.025 10.5 3.4755 10.7287 3.01817 11.186C2.56083 11.6433 2.33256 12.1924 2.33333 12.8333C2.33333 13.475 2.562 14.0245 3.01933 14.4818C3.47667 14.9392 4.02578 15.1674 4.66667 15.1667ZM15.75 12.8333C13.9611 12.8333 12.4444 12.2111 11.2 10.9667C9.95556 9.72222 9.33333 8.20556 9.33333 6.41667C9.33333 4.62778 9.95556 3.11111 11.2 1.86667C12.4444 0.622222 13.9611 0 15.75 0C17.5389 0 19.0556 0.622222 20.3 1.86667C21.5444 3.11111 22.1667 4.62778 22.1667 6.41667C22.1667 8.20556 21.5444 9.72222 20.3 10.9667C19.0556 12.2111 17.5389 12.8333 15.75 12.8333ZM13.4167 21C12.4444 21 11.6181 20.6597 10.9375 19.9792C10.2569 19.2986 9.91667 18.4722 9.91667 17.5C9.91667 16.5278 10.2569 15.7014 10.9375 15.0208C11.6181 14.3403 12.4444 14 13.4167 14C14.3889 14 15.2153 14.3403 15.8958 15.0208C16.5764 15.7014 16.9167 16.5278 16.9167 17.5C16.9167 18.4722 16.5764 19.2986 15.8958 19.9792C15.2153 20.6597 14.3889 21 13.4167 21ZM15.75 10.5C16.8972 10.5 17.8648 10.1064 18.6527 9.31933C19.4406 8.53222 19.8341 7.56467 19.8333 6.41667C19.8333 5.26944 19.4398 4.30189 18.6527 3.514C17.8656 2.72611 16.898 2.33256 15.75 2.33333C14.6028 2.33333 13.6352 2.72689 12.8473 3.514C12.0594 4.30111 11.6659 5.26867 11.6667 6.41667C11.6667 7.56389 12.0602 8.53144 12.8473 9.31933C13.6344 10.1072 14.602 10.5008 15.75 10.5ZM13.4167 18.6667C13.7472 18.6667 14.0245 18.5547 14.2485 18.3307C14.4725 18.1067 14.5841 17.8298 14.5833 17.5C14.5833 17.1694 14.4713 16.8922 14.2473 16.6682C14.0233 16.4442 13.7464 16.3326 13.4167 16.3333C13.0861 16.3333 12.8088 16.4453 12.5848 16.6693C12.3608 16.8933 12.2492 17.1702 12.25 17.5C12.25 17.8306 12.362 18.1078 12.586 18.3318C12.81 18.5558 13.0869 18.6674 13.4167 18.6667Z" fill="white"/>
</svg>
