<svg width="28" height="28" viewBox="0 0 28 28" fill="none" xmlns="http://www.w3.org/2000/svg">
<path d="M22.75 2.1875H18.375C18.0269 2.1875 17.693 2.32578 17.4469 2.57192C17.2007 2.81806 17.0625 3.1519 17.0625 3.5C17.0625 3.8481 17.2007 4.18194 17.4469 4.42808C17.693 4.67422 18.0269 4.8125 18.375 4.8125H19.5781L17.8675 6.52641C16.9915 5.79852 15.9601 5.28152 14.8528 5.01526C13.7455 4.749 12.5918 4.7406 11.4807 4.9907C10.3696 5.2408 9.33082 5.74273 8.44438 6.45778C7.55794 7.17284 6.84756 8.08191 6.368 9.11491C5.88845 10.1479 5.65253 11.2773 5.67844 12.4158C5.70435 13.5544 5.99139 14.6719 6.51744 15.682C7.04349 16.6921 7.79449 17.5679 8.71254 18.2419C9.63058 18.9159 10.6911 19.3701 11.8125 19.5694V20.5625H9.62496C9.27687 20.5625 8.94303 20.7008 8.69688 20.9469C8.45074 21.1931 8.31246 21.5269 8.31246 21.875C8.31246 22.2231 8.45074 22.5569 8.69688 22.8031C8.94303 23.0492 9.27687 23.1875 9.62496 23.1875H11.8125V25.375C11.8125 25.7231 11.9507 26.0569 12.1969 26.3031C12.443 26.5492 12.7769 26.6875 13.125 26.6875C13.4731 26.6875 13.8069 26.5492 14.053 26.3031C14.2992 26.0569 14.4375 25.7231 14.4375 25.375V23.1875H16.625C16.9731 23.1875 17.3069 23.0492 17.553 22.8031C17.7992 22.5569 17.9375 22.2231 17.9375 21.875C17.9375 21.5269 17.7992 21.1931 17.553 20.9469C17.3069 20.7008 16.9731 20.5625 16.625 20.5625H14.4375V19.5694C15.6121 19.3598 16.719 18.8705 17.6645 18.1427C18.6101 17.4149 19.3664 16.4701 19.8696 15.3882C20.3728 14.3064 20.608 13.1192 20.5554 11.9272C20.5027 10.7351 20.1638 9.57332 19.5671 8.54L21.4375 6.67188V7.875C21.4375 8.2231 21.5757 8.55694 21.8219 8.80308C22.068 9.04922 22.4019 9.1875 22.75 9.1875C23.0981 9.1875 23.4319 9.04922 23.678 8.80308C23.9242 8.55694 24.0625 8.2231 24.0625 7.875V3.5C24.0625 3.1519 23.9242 2.81806 23.678 2.57192C23.4319 2.32578 23.0981 2.1875 22.75 2.1875ZM13.125 17.0625C12.1731 17.0625 11.2427 16.7803 10.4513 16.2514C9.65987 15.7226 9.04304 14.971 8.67879 14.0917C8.31455 13.2123 8.21924 12.2447 8.40493 11.3111C8.59062 10.3776 9.04897 9.52009 9.72201 8.84705C10.3951 8.17401 11.2526 7.71566 12.1861 7.52997C13.1196 7.34428 14.0873 7.43958 14.9666 7.80383C15.846 8.16808 16.5976 8.78491 17.1264 9.57632C17.6552 10.3677 17.9375 11.2982 17.9375 12.25C17.936 13.5259 17.4285 14.7491 16.5263 15.6514C15.6241 16.5536 14.4009 17.0611 13.125 17.0625Z" fill="white"/>
</svg>
